<svg width="20" height="20" viewBox="0 0 20 20" fill="none" xmlns="http://www.w3.org/2000/svg">
<path d="M11.6619 3.33276C11.9625 3.33276 12.2575 3.41407 12.5157 3.56809C12.7738 3.7221 12.9855 3.94309 13.1283 4.20762L13.5332 4.9575C13.676 5.22203 13.8877 5.44301 14.1459 5.59703C14.404 5.75104 14.699 5.83236 14.9996 5.83235H16.6635C17.1055 5.83235 17.5293 6.00792 17.8419 6.32043C18.1544 6.63294 18.3299 7.05679 18.3299 7.49874V14.9975C18.3299 15.4395 18.1544 15.8633 17.8419 16.1758C17.5293 16.4883 17.1055 16.6639 16.6635 16.6639H3.33241C2.89045 16.6639 2.4666 16.4883 2.15409 16.1758C1.84158 15.8633 1.66602 15.4395 1.66602 14.9975V7.49874C1.66602 7.05679 1.84158 6.63294 2.15409 6.32043C2.4666 6.00792 2.89045 5.83235 3.33241 5.83235H4.9963C5.2966 5.83237 5.59133 5.75123 5.84931 5.59753C6.10729 5.44382 6.31895 5.22326 6.46189 4.95916L6.86932 4.20595C7.01227 3.94185 7.22392 3.72129 7.48191 3.56759C7.73989 3.41388 8.03461 3.33275 8.33492 3.33276H11.6619Z" stroke="black" stroke-width="1.66639" stroke-linecap="round" stroke-linejoin="round"/>
<path d="M9.99763 13.3312C11.3781 13.3312 12.4972 12.2121 12.4972 10.8316C12.4972 9.45113 11.3781 8.33203 9.99763 8.33203C8.61715 8.33203 7.49805 9.45113 7.49805 10.8316C7.49805 12.2121 8.61715 13.3312 9.99763 13.3312Z" stroke="black" stroke-width="1.66639" stroke-linecap="round" stroke-linejoin="round"/>
</svg>
